<svg xmlns="http://www.w3.org/2000/svg" viewBox="0 0 512 512" role="img" aria-label="Rice Cook">
  <rect width="512" height="512" rx="112" fill="#ffffff"/>
  <rect x="56" y="56" width="400" height="400" rx="88" fill="#f0fbf7" stroke="#d8f1e9" stroke-width="12"/>
  <path d="M184 156c18-28 18-54 0-78M256 150c18-28 18-54 0-78M328 156c18-28 18-54 0-78" fill="none" stroke="#0f7f64" stroke-width="20" stroke-linecap="round"/>
  <path d="M136 268c0 88 53 150 120 150s120-62 120-150H136z" fill="#10a37f"/>
  <path d="M151 300c22 55 61 86 105 86s83-31 105-86" fill="none" stroke="#0f7f64" stroke-width="12" stroke-linecap="round" opacity=".32"/>
  <ellipse cx="256" cy="268" rx="132" ry="50" fill="#f7f0e4" stroke="#0f7f64" stroke-width="18"/>
  <circle cx="207" cy="266" r="14" fill="#ffffff"/>
  <circle cx="256" cy="252" r="15" fill="#ffffff"/>
  <circle cx="305" cy="267" r="13" fill="#ffffff"/>
  <path d="M182 420h148" fill="none" stroke="#0a0a0a" stroke-width="18" stroke-linecap="round" opacity=".12"/>
</svg>
